<svg width="34" height="750" viewBox="0 0 34 750" fill="none" xmlns="http://www.w3.org/2000/svg">
<path d="M16.3329 29V719" stroke="white"/>
<circle cx="16.9229" cy="188.59" r="15.09" fill="#253038" stroke="white" stroke-width="3"/>
<path d="M11.9432 195V193.227L16.0852 189.392C16.4375 189.051 16.733 188.744 16.9716 188.472C17.214 188.199 17.3977 187.932 17.5227 187.67C17.6477 187.405 17.7102 187.119 17.7102 186.812C17.7102 186.472 17.6326 186.178 17.4773 185.932C17.322 185.682 17.1098 185.491 16.8409 185.358C16.572 185.222 16.267 185.153 15.9261 185.153C15.5701 185.153 15.2595 185.225 14.9943 185.369C14.7292 185.513 14.5246 185.72 14.3807 185.989C14.2367 186.258 14.1648 186.578 14.1648 186.949H11.8295C11.8295 186.187 12.0019 185.527 12.3466 184.966C12.6913 184.405 13.1742 183.972 13.7955 183.665C14.4167 183.358 15.1326 183.205 15.9432 183.205C16.7765 183.205 17.5019 183.352 18.1193 183.648C18.7405 183.939 19.2235 184.345 19.5682 184.864C19.9129 185.383 20.0852 185.977 20.0852 186.648C20.0852 187.087 19.9981 187.521 19.8239 187.949C19.6534 188.377 19.3485 188.852 18.9091 189.375C18.4697 189.894 17.8504 190.517 17.0511 191.244L15.3523 192.909V192.989H20.2386V195H11.9432Z" fill="white"/>
<circle cx="16.9229" cy="559.59" r="15.09" fill="#253038" stroke="white" stroke-width="3"/>
<path d="M11.767 563.955V562.017L16.625 554.364H18.2955V557.045H17.3068L14.2443 561.892V561.983H21.1477V563.955H11.767ZM17.3523 566V563.364L17.3977 562.506V554.364H19.7045V566H17.3523Z" fill="white"/>
<circle cx="16.9229" cy="732.59" r="15.09" fill="#253038"/>
<circle cx="16.9229" cy="732.59" r="15.09" stroke="white" stroke-width="3"/>
<circle cx="16.9229" cy="732.59" r="15.09" stroke="#1098FC" stroke-width="3"/>
<path d="M9.33295 734.071L13.5637 738L24.3329 728" stroke="white" stroke-width="3"/>
<path d="M9.33295 734.071L13.5637 738L24.3329 728" stroke="#1098FC" stroke-width="3"/>
<circle cx="16.9229" cy="16.59" r="16.59" fill="white"/>
<path d="M19.3386 11.3636V23H16.8784V13.6989H16.8102L14.1454 15.3693V13.1875L17.0261 11.3636H19.3386Z" fill="#253038"/>
<circle cx="16.9229" cy="353.59" r="15.09" fill="#253038" stroke="white" stroke-width="3"/>
<path d="M16.5773 360.159C15.7288 360.159 14.9731 360.013 14.3102 359.722C13.6511 359.426 13.1303 359.021 12.7477 358.506C12.3689 357.987 12.1739 357.388 12.1625 356.71H14.6398C14.6549 356.994 14.7477 357.244 14.9182 357.46C15.0924 357.672 15.3235 357.837 15.6114 357.955C15.8992 358.072 16.2231 358.131 16.5829 358.131C16.9579 358.131 17.2894 358.064 17.5773 357.932C17.8651 357.799 18.0905 357.616 18.2534 357.381C18.4163 357.146 18.4977 356.875 18.4977 356.568C18.4977 356.258 18.4106 355.983 18.2364 355.744C18.0659 355.502 17.8197 355.312 17.4977 355.176C17.1795 355.04 16.8007 354.972 16.3614 354.972H15.2761V353.165H16.3614C16.7326 353.165 17.0602 353.1 17.3443 352.972C17.6322 352.843 17.8557 352.665 18.0148 352.438C18.1739 352.206 18.2534 351.938 18.2534 351.631C18.2534 351.339 18.1833 351.083 18.0432 350.864C17.9068 350.64 17.7136 350.466 17.4636 350.341C17.2174 350.216 16.9295 350.153 16.6 350.153C16.2667 350.153 15.9617 350.214 15.6852 350.335C15.4087 350.453 15.1871 350.621 15.0204 350.841C14.8538 351.061 14.7648 351.318 14.7534 351.614H12.3954C12.4068 350.943 12.5981 350.352 12.9693 349.841C13.3405 349.33 13.8405 348.93 14.4693 348.642C15.1019 348.35 15.8159 348.205 16.6114 348.205C17.4144 348.205 18.117 348.35 18.7193 348.642C19.3216 348.934 19.7894 349.328 20.1227 349.824C20.4598 350.316 20.6265 350.869 20.6227 351.483C20.6265 352.134 20.4239 352.678 20.0148 353.114C19.6095 353.549 19.0811 353.826 18.4295 353.943V354.034C19.2856 354.144 19.9371 354.441 20.3841 354.926C20.8348 355.407 21.0583 356.009 21.0545 356.733C21.0583 357.396 20.867 357.985 20.4807 358.5C20.0981 359.015 19.5697 359.42 18.8954 359.716C18.2212 360.011 17.4485 360.159 16.5773 360.159Z" fill="white"/>
</svg>
