<svg width="64" height="61" viewBox="0 0 64 61" fill="none" xmlns="http://www.w3.org/2000/svg">
<path fill-rule="evenodd" clip-rule="evenodd" d="M5.85795 16.6002C0.868116 18.9674 -1.25798 24.9314 1.10917 29.9212L3.68084 35.3421L21.7506 26.7699L21.5363 26.3182C19.7609 22.5758 21.3555 18.1028 25.0979 16.3274C28.8403 14.552 33.3133 16.1466 35.0886 19.889L35.303 20.3407L53.3727 11.7685L50.8011 6.34758C48.4339 1.35775 42.4699 -0.768352 37.4801 1.5988L5.85795 16.6002ZM54.23 13.5755L36.1602 22.1477L40.8749 32.0861L58.9447 23.5139L54.23 13.5755ZM59.8019 25.3208L41.7321 33.8931L42.375 35.2483C44.1504 38.9907 42.5558 43.4637 38.8135 45.2391C35.0711 47.0144 30.5981 45.4199 28.8227 41.6775L28.1798 40.3222L10.11 48.8945L12.6817 54.3154C15.0488 59.3052 21.0129 61.4313 26.0027 59.0642L57.6248 44.0628C62.6146 41.6956 64.7407 35.7316 62.3736 30.7418L59.8019 25.3208ZM9.25279 47.0875L27.3226 38.5153L22.6078 28.5769L4.53807 37.1491L9.25279 47.0875ZM40.5681 36.1055L33.2817 20.7462C31.9797 18.0018 28.6995 16.8325 25.9551 18.1344C23.2107 19.4363 22.0414 22.7165 23.3433 25.4609L30.6297 40.8203C31.9316 43.5647 35.2118 44.734 37.9562 43.4321C40.7006 42.1301 41.87 38.8499 40.5681 36.1055Z" fill="#D9D9D9"/>
</svg>
