<svg width="580" height="536" viewBox="0 0 580 536" fill="none" xmlns="http://www.w3.org/2000/svg">
<rect x="150.151" y="195.682" width="433" height="251" rx="25" transform="rotate(7.61356 150.151 195.682)" fill="#AA5BBF"/>
<g opacity="0.5" filter="url(#filter0_f_22_225)">
<circle cx="348.115" cy="348.76" r="100.5" transform="rotate(7.61356 348.115 348.76)" fill="#D9D9D9"/>
</g>
<path d="M310.88 254.689C310.154 254.589 309.552 254.327 309.076 253.902C308.603 253.478 308.27 252.91 308.078 252.2C307.889 251.489 307.86 250.661 307.989 249.716C308.115 248.772 308.362 247.987 308.73 247.36C309.1 246.733 309.569 246.281 310.136 246.004C310.706 245.725 311.353 245.634 312.077 245.731C312.801 245.827 313.4 246.085 313.874 246.504C314.351 246.923 314.686 247.484 314.879 248.186C315.072 248.885 315.104 249.706 314.975 250.649C314.848 251.598 314.599 252.391 314.228 253.026C313.859 253.662 313.39 254.122 312.822 254.407C312.254 254.692 311.606 254.786 310.88 254.689ZM311.082 253.173C311.578 253.239 312.007 253.043 312.369 252.584C312.731 252.125 312.978 251.397 313.108 250.4C313.196 249.744 313.201 249.188 313.125 248.734C313.051 248.28 312.906 247.927 312.69 247.674C312.477 247.422 312.206 247.274 311.877 247.23C311.384 247.164 310.957 247.358 310.595 247.811C310.234 248.264 309.986 248.982 309.852 249.965C309.763 250.629 309.755 251.193 309.828 251.655C309.904 252.115 310.05 252.473 310.265 252.728C310.48 252.981 310.753 253.129 311.082 253.173ZM318.09 248.856L318.978 251.283L320.502 249.178L322.348 249.425L320.034 252.418L321.531 255.92L319.694 255.674L318.714 253.26L317.155 255.335L315.297 255.086L317.656 252.1L316.232 248.608L318.09 248.856ZM322.583 256.06L323.739 247.41L325.538 247.65L325.104 250.903L325.159 250.91C325.261 250.746 325.399 250.584 325.572 250.424C325.748 250.261 325.966 250.135 326.224 250.046C326.486 249.955 326.798 249.934 327.161 249.983C327.634 250.046 328.054 250.228 328.421 250.529C328.788 250.828 329.058 251.241 329.231 251.768C329.405 252.293 329.442 252.927 329.343 253.671C329.246 254.394 329.047 254.99 328.747 255.457C328.45 255.922 328.084 256.255 327.65 256.458C327.219 256.658 326.757 256.726 326.265 256.66C325.915 256.613 325.626 256.516 325.396 256.367C325.17 256.22 324.991 256.048 324.859 255.853C324.728 255.655 324.634 255.46 324.576 255.269L324.496 255.258L324.357 256.297L322.583 256.06ZM324.778 253.052C324.726 253.438 324.735 253.781 324.803 254.083C324.872 254.384 324.997 254.629 325.178 254.816C325.36 255.001 325.596 255.113 325.886 255.152C326.179 255.191 326.437 255.144 326.661 255.01C326.886 254.874 327.069 254.669 327.212 254.396C327.358 254.12 327.456 253.794 327.506 253.416C327.556 253.042 327.548 252.706 327.482 252.407C327.416 252.109 327.292 251.866 327.111 251.678C326.93 251.491 326.691 251.377 326.396 251.338C326.103 251.298 325.845 251.343 325.621 251.471C325.4 251.599 325.218 251.798 325.073 252.068C324.928 252.338 324.829 252.666 324.778 253.052ZM330.144 257.071L331.301 248.421L333.1 248.661L332.665 251.913L332.72 251.921C332.822 251.757 332.96 251.595 333.134 251.434C333.31 251.272 333.527 251.146 333.786 251.057C334.047 250.966 334.36 250.945 334.723 250.993C335.196 251.057 335.616 251.239 335.983 251.54C336.35 251.838 336.62 252.251 336.793 252.779C336.967 253.304 337.004 253.938 336.904 254.681C336.807 255.405 336.609 256 336.309 256.468C336.011 256.932 335.646 257.266 335.212 257.469C334.781 257.669 334.319 257.736 333.826 257.671C333.477 257.624 333.188 257.526 332.958 257.378C332.731 257.23 332.552 257.059 332.421 256.864C332.29 256.665 332.195 256.471 332.138 256.28L332.057 256.269L331.918 257.308L330.144 257.071ZM332.339 254.063C332.288 254.448 332.296 254.792 332.365 255.093C332.434 255.395 332.559 255.64 332.74 255.827C332.921 256.012 333.157 256.124 333.447 256.162C333.74 256.202 333.999 256.154 334.223 256.021C334.448 255.885 334.631 255.68 334.774 255.407C334.919 255.131 335.018 254.805 335.068 254.427C335.118 254.053 335.11 253.716 335.044 253.418C334.978 253.12 334.854 252.877 334.673 252.689C334.491 252.501 334.253 252.388 333.957 252.348C333.664 252.309 333.406 252.354 333.183 252.481C332.962 252.609 332.779 252.809 332.634 253.079C332.489 253.349 332.391 253.677 332.339 254.063ZM340.049 258.502C339.556 258.436 339.127 258.25 338.761 257.943C338.398 257.634 338.133 257.216 337.965 256.689C337.801 256.16 337.767 255.533 337.864 254.81C337.963 254.066 338.166 253.464 338.471 253.003C338.777 252.54 339.144 252.212 339.574 252.02C340.007 251.826 340.461 251.76 340.937 251.824C341.301 251.873 341.595 251.975 341.821 252.131C342.049 252.285 342.226 252.463 342.351 252.666C342.479 252.867 342.571 253.06 342.626 253.245L342.681 253.252L343.116 250L344.911 250.24L343.755 258.89L341.981 258.653L342.119 257.614L342.043 257.604C341.935 257.773 341.791 257.936 341.613 258.092C341.437 258.247 341.219 258.365 340.959 258.448C340.701 258.531 340.398 258.549 340.049 258.502ZM340.81 257.147C341.101 257.185 341.356 257.139 341.577 257.008C341.801 256.875 341.986 256.672 342.131 256.399C342.28 256.126 342.38 255.797 342.431 255.411C342.483 255.026 342.474 254.683 342.405 254.385C342.336 254.086 342.21 253.846 342.028 253.664C341.846 253.482 341.61 253.371 341.32 253.333C341.025 253.293 340.765 253.34 340.541 253.473C340.316 253.607 340.133 253.809 339.991 254.079C339.849 254.35 339.753 254.672 339.703 255.047C339.652 255.424 339.66 255.765 339.725 256.069C339.794 256.37 339.917 256.616 340.095 256.806C340.276 256.994 340.515 257.107 340.81 257.147ZM348.428 259.635C347.778 259.548 347.213 259.365 346.735 259.086C346.259 258.805 345.903 258.461 345.665 258.053C345.427 257.646 345.339 257.209 345.401 256.741C345.45 256.381 345.576 256.061 345.779 255.782C345.986 255.5 346.245 255.278 346.556 255.116C346.867 254.951 347.203 254.864 347.563 254.855L347.57 254.796C347.121 254.641 346.776 254.367 346.537 253.974C346.297 253.578 346.209 253.143 346.272 252.67C346.332 252.223 346.516 251.842 346.825 251.528C347.134 251.211 347.53 250.983 348.013 250.844C348.499 250.702 349.033 250.671 349.616 250.748C350.199 250.826 350.705 250.997 351.134 251.261C351.566 251.525 351.889 251.851 352.104 252.238C352.319 252.622 352.399 253.036 352.342 253.482C352.276 253.957 352.074 254.353 351.736 254.669C351.399 254.985 350.997 255.159 350.531 255.192L350.523 255.251C350.862 255.353 351.159 255.525 351.413 255.765C351.671 256.003 351.863 256.285 351.988 256.612C352.117 256.935 352.158 257.278 352.113 257.639C352.048 258.106 351.847 258.504 351.51 258.835C351.174 259.165 350.738 259.404 350.202 259.55C349.67 259.694 349.079 259.722 348.428 259.635ZM348.608 258.292C348.898 258.331 349.158 258.313 349.389 258.237C349.62 258.159 349.809 258.036 349.955 257.866C350.104 257.694 350.195 257.485 350.227 257.24C350.261 256.99 350.227 256.76 350.126 256.552C350.025 256.341 349.874 256.166 349.672 256.027C349.47 255.885 349.228 255.796 348.947 255.758C348.668 255.721 348.411 255.744 348.176 255.827C347.942 255.907 347.749 256.036 347.596 256.214C347.446 256.389 347.355 256.601 347.321 256.852C347.289 257.097 347.32 257.322 347.416 257.527C347.512 257.729 347.663 257.898 347.868 258.034C348.074 258.168 348.321 258.254 348.608 258.292ZM349.124 254.427C349.367 254.46 349.589 254.439 349.79 254.366C349.992 254.293 350.158 254.176 350.289 254.015C350.419 253.855 350.499 253.661 350.53 253.433C350.56 253.208 350.533 253.003 350.448 252.82C350.364 252.634 350.236 252.481 350.063 252.36C349.89 252.237 349.68 252.159 349.432 252.125C349.187 252.093 348.964 252.113 348.762 252.186C348.56 252.257 348.395 252.371 348.265 252.528C348.138 252.683 348.06 252.873 348.029 253.099C347.999 253.327 348.026 253.535 348.109 253.724C348.193 253.913 348.322 254.069 348.498 254.193C348.673 254.317 348.882 254.395 349.124 254.427ZM356.262 260.682C355.632 260.598 355.084 260.415 354.621 260.132C354.16 259.847 353.813 259.494 353.58 259.073C353.35 258.649 353.264 258.185 353.323 257.68L355.165 257.926C355.148 258.139 355.192 258.334 355.297 258.511C355.406 258.686 355.561 258.832 355.763 258.948C355.966 259.064 356.201 259.139 356.468 259.175C356.747 259.212 357 259.196 357.227 259.126C357.454 259.056 357.64 258.942 357.784 258.784C357.929 258.625 358.016 258.432 358.047 258.204C358.078 257.973 358.04 257.76 357.934 257.565C357.832 257.368 357.668 257.203 357.442 257.07C357.219 256.937 356.944 256.848 356.617 256.805L355.811 256.697L355.99 255.354L356.797 255.462C357.073 255.498 357.323 255.483 357.547 255.416C357.774 255.348 357.957 255.238 358.098 255.085C358.239 254.929 358.325 254.737 358.356 254.509C358.385 254.292 358.358 254.095 358.276 253.918C358.197 253.738 358.07 253.59 357.897 253.472C357.726 253.354 357.518 253.279 357.273 253.247C357.026 253.214 356.793 253.228 356.575 253.291C356.358 253.351 356.177 253.454 356.031 253.601C355.885 253.748 355.793 253.93 355.756 254.149L354.003 253.914C354.078 253.417 354.279 252.997 354.606 252.654C354.932 252.31 355.344 252.063 355.84 251.911C356.339 251.757 356.884 251.72 357.476 251.799C358.073 251.879 358.58 252.057 358.999 252.334C359.418 252.61 359.727 252.95 359.925 253.352C360.127 253.751 360.196 254.179 360.132 254.635C360.07 255.119 359.865 255.503 359.518 255.787C359.173 256.07 358.753 256.223 358.257 256.246L358.248 256.313C358.873 256.48 359.328 256.766 359.612 257.171C359.9 257.573 360.006 258.043 359.931 258.58C359.868 259.074 359.667 259.492 359.329 259.837C358.993 260.182 358.56 260.431 358.03 260.583C357.499 260.736 356.91 260.769 356.262 260.682ZM360.921 261.185L361.097 259.867L364.558 257.428C364.853 257.209 365.103 257.01 365.308 256.831C365.515 256.653 365.678 256.472 365.797 256.291C365.917 256.106 365.991 255.9 366.022 255.671C366.056 255.418 366.027 255.192 365.936 254.994C365.846 254.792 365.707 254.629 365.52 254.504C365.334 254.376 365.114 254.295 364.86 254.261C364.596 254.225 364.358 254.248 364.146 254.329C363.935 254.409 363.762 254.542 363.629 254.728C363.495 254.914 363.41 255.145 363.373 255.42L361.637 255.188C361.712 254.622 361.906 254.148 362.218 253.766C362.53 253.383 362.932 253.109 363.424 252.942C363.917 252.776 364.464 252.733 365.067 252.814C365.686 252.897 366.211 253.078 366.64 253.359C367.073 253.638 367.392 253.987 367.597 254.407C367.801 254.827 367.87 255.287 367.804 255.785C367.76 256.112 367.652 256.425 367.48 256.726C367.311 257.027 367.037 257.351 366.658 257.695C366.28 258.038 365.758 258.439 365.092 258.9L363.663 259.969L363.655 260.028L367.288 260.514L367.088 262.009L360.921 261.185ZM368.464 262.193L369.62 253.543L371.419 253.783L370.985 257.036L371.04 257.043C371.142 256.879 371.28 256.717 371.453 256.556C371.629 256.394 371.847 256.268 372.105 256.179C372.367 256.088 372.679 256.067 373.042 256.115C373.515 256.179 373.935 256.361 374.302 256.662C374.669 256.961 374.939 257.374 375.112 257.901C375.286 258.426 375.323 259.06 375.224 259.803C375.127 260.527 374.928 261.122 374.628 261.59C374.331 262.054 373.965 262.388 373.531 262.591C373.1 262.791 372.638 262.859 372.146 262.793C371.796 262.746 371.507 262.649 371.277 262.5C371.051 262.353 370.872 262.181 370.74 261.986C370.609 261.788 370.515 261.593 370.457 261.402L370.377 261.391L370.238 262.43L368.464 262.193ZM370.659 259.185C370.607 259.57 370.616 259.914 370.684 260.216C370.753 260.517 370.878 260.762 371.059 260.949C371.241 261.134 371.477 261.246 371.767 261.285C372.06 261.324 372.318 261.277 372.542 261.143C372.767 261.007 372.95 260.802 373.093 260.529C373.239 260.253 373.337 259.927 373.387 259.549C373.437 259.175 373.429 258.838 373.363 258.54C373.297 258.242 373.173 257.999 372.992 257.811C372.811 257.624 372.572 257.51 372.277 257.471C371.984 257.431 371.726 257.476 371.502 257.603C371.281 257.732 371.099 257.931 370.954 258.201C370.809 258.471 370.71 258.799 370.659 259.185ZM375.992 263.199L376.859 256.712L378.603 256.945L378.452 258.077L378.52 258.086C378.692 257.699 378.931 257.421 379.237 257.253C379.544 257.082 379.879 257.021 380.242 257.069C380.332 257.081 380.428 257.1 380.531 257.125C380.634 257.15 380.723 257.178 380.799 257.208L380.586 258.805C380.505 258.768 380.391 258.73 380.244 258.69C380.098 258.651 379.963 258.623 379.839 258.606C379.574 258.571 379.33 258.597 379.106 258.684C378.885 258.769 378.701 258.905 378.553 259.092C378.407 259.279 378.317 259.505 378.282 259.769L377.791 263.44L375.992 263.199ZM384.053 264.397C383.402 264.31 382.838 264.127 382.359 263.848C381.884 263.567 381.527 263.223 381.289 262.815C381.051 262.408 380.964 261.971 381.026 261.503C381.074 261.143 381.2 260.823 381.404 260.544C381.61 260.262 381.869 260.04 382.181 259.878C382.492 259.713 382.828 259.626 383.187 259.617L383.195 259.558C382.746 259.403 382.401 259.129 382.161 258.736C381.922 258.34 381.834 257.905 381.897 257.432C381.957 256.985 382.141 256.604 382.45 256.289C382.758 255.972 383.154 255.745 383.637 255.606C384.123 255.464 384.658 255.432 385.241 255.51C385.824 255.588 386.33 255.759 386.759 256.023C387.191 256.287 387.514 256.612 387.729 256.999C387.944 257.384 388.023 257.798 387.967 258.244C387.9 258.719 387.698 259.115 387.361 259.431C387.023 259.747 386.622 259.921 386.156 259.953L386.148 260.013C386.487 260.115 386.783 260.287 387.038 260.527C387.296 260.765 387.487 261.047 387.613 261.373C387.741 261.697 387.783 262.04 387.738 262.4C387.672 262.868 387.471 263.266 387.135 263.597C386.798 263.927 386.362 264.166 385.827 264.312C385.295 264.456 384.703 264.484 384.053 264.397ZM384.232 263.054C384.522 263.093 384.783 263.075 385.014 262.999C385.245 262.921 385.433 262.798 385.579 262.628C385.728 262.456 385.819 262.247 385.852 262.002C385.885 261.752 385.852 261.522 385.75 261.314C385.65 261.102 385.498 260.927 385.296 260.789C385.094 260.647 384.853 260.557 384.571 260.52C384.292 260.483 384.036 260.506 383.801 260.589C383.567 260.669 383.373 260.798 383.22 260.976C383.071 261.15 382.979 261.363 382.946 261.614C382.913 261.859 382.945 262.084 383.041 262.289C383.137 262.491 383.288 262.66 383.493 262.796C383.699 262.93 383.945 263.016 384.232 263.054ZM384.749 259.189C384.991 259.222 385.213 259.201 385.415 259.128C385.617 259.054 385.783 258.938 385.913 258.777C386.044 258.617 386.124 258.423 386.154 258.195C386.185 257.97 386.157 257.765 386.073 257.582C385.989 257.396 385.86 257.243 385.687 257.122C385.515 256.999 385.304 256.92 385.057 256.887C384.812 256.855 384.588 256.875 384.386 256.948C384.185 257.019 384.019 257.133 383.889 257.29C383.763 257.445 383.684 257.635 383.654 257.861C383.623 258.089 383.65 258.297 383.734 258.486C383.817 258.675 383.947 258.831 384.122 258.955C384.298 259.079 384.507 259.157 384.749 259.189ZM388.756 264.906L389.912 256.255L391.712 256.496L391.277 259.748L391.332 259.755C391.434 259.591 391.572 259.429 391.745 259.269C391.922 259.106 392.139 258.98 392.397 258.892C392.659 258.801 392.971 258.779 393.335 258.828C393.808 258.891 394.227 259.073 394.594 259.375C394.961 259.673 395.231 260.086 395.405 260.614C395.578 261.138 395.615 261.772 395.516 262.516C395.419 263.24 395.22 263.835 394.92 264.302C394.623 264.767 394.257 265.101 393.823 265.303C393.392 265.504 392.93 265.571 392.438 265.505C392.089 265.458 391.799 265.361 391.57 265.213C391.343 265.065 391.164 264.893 391.032 264.698C390.901 264.5 390.807 264.305 390.749 264.114L390.669 264.104L390.53 265.143L388.756 264.906ZM390.951 261.897C390.899 262.283 390.908 262.626 390.976 262.928C391.045 263.23 391.17 263.474 391.351 263.662C391.533 263.846 391.769 263.958 392.059 263.997C392.352 264.036 392.61 263.989 392.834 263.856C393.059 263.719 393.243 263.515 393.385 263.241C393.531 262.966 393.629 262.639 393.679 262.262C393.73 261.887 393.721 261.551 393.655 261.253C393.589 260.954 393.465 260.711 393.284 260.524C393.103 260.336 392.864 260.222 392.569 260.183C392.276 260.144 392.018 260.188 391.794 260.316C391.574 260.444 391.391 260.643 391.246 260.913C391.101 261.183 391.002 261.511 390.951 261.897ZM399.478 266.459C398.828 266.372 398.263 266.189 397.784 265.91C397.309 265.629 396.952 265.285 396.714 264.877C396.477 264.47 396.389 264.033 396.451 263.565C396.5 263.205 396.625 262.885 396.829 262.605C397.036 262.323 397.295 262.102 397.606 261.94C397.917 261.775 398.253 261.688 398.612 261.679L398.62 261.62C398.171 261.465 397.826 261.191 397.587 260.798C397.347 260.402 397.259 259.967 397.322 259.494C397.382 259.046 397.566 258.666 397.875 258.351C398.184 258.034 398.58 257.806 399.063 257.667C399.549 257.526 400.083 257.494 400.666 257.572C401.249 257.65 401.755 257.821 402.184 258.085C402.616 258.349 402.939 258.674 403.154 259.061C403.369 259.445 403.448 259.86 403.392 260.305C403.325 260.781 403.123 261.177 402.786 261.493C402.449 261.809 402.047 261.983 401.581 262.015L401.573 262.074C401.912 262.177 402.209 262.349 402.463 262.589C402.721 262.827 402.912 263.109 403.038 263.435C403.167 263.759 403.208 264.102 403.163 264.462C403.098 264.929 402.897 265.328 402.56 265.659C402.224 265.989 401.788 266.228 401.252 266.374C400.72 266.518 400.129 266.546 399.478 266.459ZM399.658 265.116C399.948 265.155 400.208 265.136 400.439 265.061C400.67 264.983 400.858 264.859 401.004 264.69C401.154 264.518 401.244 264.309 401.277 264.064C401.311 263.814 401.277 263.584 401.176 263.376C401.075 263.164 400.924 262.989 400.721 262.851C400.52 262.709 400.278 262.619 399.996 262.582C399.718 262.544 399.461 262.567 399.226 262.651C398.992 262.731 398.798 262.86 398.646 263.037C398.496 263.212 398.405 263.425 398.371 263.676C398.338 263.921 398.37 264.146 398.466 264.35C398.562 264.552 398.713 264.722 398.918 264.858C399.124 264.992 399.37 265.078 399.658 265.116ZM400.174 261.251C400.416 261.284 400.638 261.263 400.84 261.19C401.042 261.116 401.208 261 401.339 260.839C401.469 260.679 401.549 260.485 401.58 260.257C401.61 260.031 401.583 259.827 401.498 259.644C401.414 259.458 401.286 259.305 401.113 259.184C400.94 259.061 400.73 258.982 400.482 258.949C400.237 258.916 400.014 258.937 399.812 259.01C399.61 259.081 399.445 259.195 399.315 259.352C399.188 259.507 399.109 259.697 399.079 259.923C399.049 260.151 399.075 260.359 399.159 260.548C399.243 260.737 399.372 260.893 399.548 261.017C399.723 261.141 399.932 261.219 400.174 261.251ZM404.941 267.181C404.662 267.143 404.436 267.013 404.262 266.789C404.092 266.563 404.025 266.31 404.062 266.031C404.099 265.756 404.229 265.532 404.453 265.361C404.679 265.191 404.932 265.124 405.21 265.162C405.481 265.198 405.704 265.328 405.881 265.552C406.057 265.776 406.127 266.027 406.09 266.302C406.065 266.488 405.994 266.652 405.878 266.794C405.765 266.934 405.626 267.04 405.461 267.113C405.297 267.182 405.124 267.205 404.941 267.181ZM408.483 267.654C408.205 267.617 407.978 267.486 407.805 267.263C407.634 267.036 407.568 266.784 407.605 266.505C407.642 266.229 407.772 266.006 407.996 265.835C408.222 265.665 408.474 265.598 408.753 265.635C409.024 265.671 409.247 265.802 409.423 266.026C409.6 266.25 409.669 266.5 409.633 266.776C409.608 266.962 409.537 267.126 409.421 267.268C409.307 267.408 409.169 267.514 409.004 267.586C408.84 267.656 408.666 267.679 408.483 267.654ZM412.026 268.128C411.747 268.091 411.521 267.96 411.348 267.736C411.177 267.51 411.111 267.257 411.148 266.979C411.185 266.703 411.315 266.479 411.538 266.308C411.765 266.138 412.017 266.072 412.296 266.109C412.566 266.145 412.79 266.275 412.966 266.499C413.142 266.724 413.212 266.974 413.175 267.25C413.15 267.435 413.08 267.599 412.963 267.741C412.85 267.881 412.711 267.987 412.547 268.06C412.383 268.13 412.209 268.152 412.026 268.128Z" fill="white"/>
<path fill-rule="evenodd" clip-rule="evenodd" d="M176.285 302.083C170.81 301.351 165.78 305.195 165.048 310.67L164.253 316.617L184.077 319.267L184.143 318.771C184.692 314.665 188.465 311.782 192.57 312.331C196.676 312.88 199.559 316.653 199.011 320.758L198.944 321.254L218.768 323.904L219.563 317.957C220.295 312.482 216.45 307.452 210.976 306.72L176.285 302.083ZM218.503 325.886L198.679 323.236L197.222 334.139L217.046 336.789L218.503 325.886ZM216.781 338.772L196.957 336.122L196.758 337.608C196.21 341.714 192.436 344.597 188.331 344.049C184.225 343.5 181.342 339.727 181.891 335.621L182.089 334.134L162.266 331.485L161.471 337.432C160.739 342.906 164.583 347.937 170.058 348.668L204.749 353.306C210.223 354.037 215.254 350.193 215.986 344.719L216.781 338.772ZM162.531 329.502L182.354 332.152L183.812 321.249L163.988 318.599L162.531 329.502ZM194.776 337.343L197.028 320.493C197.431 317.483 195.316 314.716 192.305 314.313C189.295 313.911 186.528 316.025 186.125 319.036L183.873 335.886C183.47 338.897 185.585 341.664 188.596 342.066C191.607 342.469 194.373 340.354 194.776 337.343Z" fill="#D9D9D9"/>
<circle cx="348.544" cy="349.322" r="67" transform="rotate(7.61356 348.544 349.322)" fill="#AA5BBF"/>
<path d="M518.033 378.358C519.839 376.764 521.101 374.535 521.446 371.955C521.791 369.375 521.159 366.894 519.832 364.877C519.794 364.821 519.735 364.783 519.669 364.769C519.603 364.755 519.534 364.768 519.477 364.804L517.95 365.775C517.828 365.854 517.794 366.016 517.872 366.137C518.914 367.701 519.411 369.635 519.142 371.647C518.873 373.659 517.885 375.396 516.473 376.631C516.365 376.728 516.356 376.893 516.452 377L517.671 378.339C517.765 378.443 517.926 378.452 518.033 378.358ZM522.013 382.725C524.759 380.195 526.672 376.724 527.207 372.725C527.741 368.727 526.807 364.876 524.822 361.71C524.786 361.652 524.727 361.611 524.66 361.596C524.593 361.581 524.523 361.593 524.465 361.629L522.938 362.601C522.817 362.676 522.782 362.838 522.858 362.956C524.559 365.676 525.361 368.987 524.903 372.417C524.444 375.848 522.801 378.832 520.445 381.006C520.341 381.103 520.332 381.265 520.429 381.37L521.647 382.709C521.744 382.813 521.909 382.822 522.013 382.725ZM525.961 387.064C529.67 383.595 532.25 378.864 532.976 373.431C533.698 368.034 532.472 362.827 529.842 358.52C529.824 358.491 529.801 358.465 529.773 358.445C529.745 358.424 529.713 358.41 529.68 358.402C529.646 358.394 529.611 358.393 529.577 358.399C529.543 358.405 529.511 358.418 529.482 358.436L527.954 359.408C527.837 359.484 527.799 359.642 527.872 359.759C530.225 363.624 531.318 368.288 530.672 373.123C530.021 377.994 527.711 382.232 524.389 385.348C524.285 385.445 524.28 385.608 524.376 385.712L525.595 387.051C525.691 387.159 525.857 387.165 525.961 387.064Z" fill="#D9D9D9"/>
<g filter="url(#filter1_d_22_225)">
<rect x="1" y="185.589" width="433" height="251" rx="25" transform="rotate(-25.3795 1 185.589)" fill="#5D51BB"/>
<g opacity="0.5" filter="url(#filter2_f_22_225)">
<circle cx="250.396" cy="206.182" r="100.5" transform="rotate(-25.3795 250.396 206.182)" fill="#D9D9D9"/>
</g>
<path d="M167.94 147.558C167.277 147.869 166.63 147.977 165.999 147.88C165.371 147.781 164.783 147.487 164.235 146.995C163.69 146.502 163.214 145.824 162.807 144.96C162.399 144.1 162.179 143.307 162.146 142.581C162.115 141.853 162.262 141.219 162.587 140.678C162.914 140.133 163.407 139.704 164.066 139.392C164.726 139.079 165.369 138.969 165.995 139.062C166.623 139.153 167.209 139.441 167.753 139.925C168.296 140.407 168.77 141.078 169.175 141.939C169.586 142.804 169.808 143.604 169.842 144.339C169.879 145.073 169.737 145.715 169.416 146.263C169.094 146.812 168.602 147.243 167.94 147.558ZM167.285 146.175C167.736 145.961 167.989 145.563 168.043 144.981C168.097 144.399 167.907 143.654 167.474 142.746C167.19 142.148 166.892 141.68 166.58 141.34C166.271 141 165.957 140.782 165.639 140.688C165.323 140.592 165.015 140.616 164.715 140.758C164.266 140.971 164.013 141.366 163.956 141.944C163.9 142.521 164.083 143.258 164.505 144.155C164.793 144.76 165.093 145.237 165.406 145.586C165.72 145.93 166.037 146.151 166.357 146.248C166.675 146.342 166.984 146.318 167.285 146.175ZM170.811 138.739L172.878 140.291L173.01 137.696L174.692 136.898L174.382 140.667L177.544 142.789L175.869 143.584L173.733 142.093L173.555 144.682L171.861 145.485L172.214 141.696L169.117 139.542L170.811 138.739ZM178.503 142.335L174.762 134.45L176.402 133.672L177.809 136.636L177.859 136.612C177.855 136.419 177.882 136.208 177.94 135.979C178 135.747 178.114 135.523 178.282 135.308C178.452 135.089 178.702 134.901 179.033 134.744C179.465 134.539 179.916 134.464 180.388 134.516C180.858 134.567 181.309 134.766 181.742 135.114C182.173 135.46 182.55 135.972 182.871 136.649C183.184 137.309 183.342 137.917 183.344 138.472C183.348 139.024 183.223 139.503 182.969 139.909C182.717 140.312 182.366 140.62 181.917 140.833C181.599 140.984 181.303 141.06 181.03 141.06C180.759 141.06 180.516 141.013 180.299 140.921C180.081 140.826 179.896 140.715 179.743 140.586L179.67 140.62L180.12 141.568L178.503 142.335ZM178.705 138.616C178.872 138.968 179.066 139.251 179.288 139.467C179.51 139.682 179.748 139.819 180.002 139.878C180.255 139.934 180.514 139.9 180.778 139.774C181.045 139.647 181.236 139.467 181.352 139.233C181.466 138.997 181.508 138.725 181.479 138.418C181.451 138.107 181.356 137.78 181.193 137.436C181.031 137.095 180.841 136.817 180.623 136.603C180.405 136.389 180.169 136.252 179.914 136.194C179.66 136.135 179.398 136.17 179.129 136.297C178.862 136.424 178.67 136.602 178.552 136.831C178.436 137.058 178.392 137.325 178.417 137.63C178.442 137.936 178.539 138.264 178.705 138.616ZM185.395 139.065L181.655 131.18L183.295 130.402L184.701 133.366L184.751 133.343C184.748 133.149 184.775 132.938 184.833 132.709C184.892 132.477 185.006 132.253 185.175 132.038C185.344 131.819 185.595 131.631 185.926 131.474C186.357 131.269 186.809 131.194 187.28 131.247C187.751 131.297 188.202 131.496 188.635 131.845C189.066 132.19 189.442 132.702 189.764 133.38C190.077 134.039 190.234 134.647 190.237 135.202C190.241 135.754 190.116 136.233 189.862 136.639C189.61 137.042 189.259 137.35 188.81 137.563C188.491 137.714 188.196 137.79 187.922 137.79C187.652 137.79 187.408 137.744 187.191 137.651C186.974 137.557 186.788 137.445 186.636 137.316L186.563 137.351L187.012 138.298L185.395 139.065ZM185.598 135.346C185.765 135.698 185.959 135.982 186.181 136.197C186.403 136.413 186.641 136.55 186.895 136.608C187.148 136.664 187.406 136.63 187.671 136.504C187.938 136.378 188.129 136.197 188.244 135.963C188.358 135.727 188.401 135.455 188.372 135.148C188.344 134.838 188.248 134.51 188.085 134.166C187.923 133.825 187.733 133.547 187.515 133.333C187.297 133.119 187.061 132.982 186.807 132.924C186.553 132.865 186.291 132.9 186.021 133.028C185.755 133.154 185.562 133.332 185.444 133.561C185.329 133.788 185.284 134.055 185.31 134.361C185.335 134.666 185.431 134.995 185.598 135.346ZM194.482 134.872C194.033 135.085 193.571 135.163 193.097 135.105C192.624 135.043 192.174 134.836 191.747 134.486C191.321 134.131 190.951 133.624 190.639 132.964C190.317 132.287 190.159 131.672 190.164 131.119C190.168 130.564 190.298 130.089 190.554 129.694C190.811 129.295 191.157 128.993 191.59 128.787C191.921 128.63 192.224 128.555 192.499 128.564C192.774 128.568 193.02 128.621 193.235 128.724C193.451 128.822 193.633 128.934 193.781 129.059L193.831 129.035L192.424 126.071L194.061 125.294L197.801 133.179L196.184 133.947L195.735 132.999L195.666 133.032C195.666 133.233 195.635 133.448 195.57 133.677C195.507 133.901 195.389 134.119 195.216 134.331C195.045 134.541 194.8 134.721 194.482 134.872ZM194.382 133.32C194.647 133.195 194.836 133.017 194.95 132.787C195.066 132.553 195.11 132.282 195.083 131.974C195.059 131.664 194.964 131.334 194.797 130.982C194.63 130.631 194.436 130.348 194.216 130.135C193.995 129.922 193.759 129.789 193.507 129.736C193.256 129.682 192.998 129.718 192.733 129.844C192.464 129.971 192.271 130.152 192.156 130.386C192.04 130.62 191.997 130.889 192.025 131.194C192.053 131.498 192.148 131.821 192.31 132.162C192.473 132.506 192.665 132.788 192.885 133.007C193.107 133.223 193.344 133.362 193.597 133.424C193.851 133.483 194.113 133.448 194.382 133.32ZM202.127 131.259C201.534 131.541 200.961 131.695 200.408 131.721C199.856 131.744 199.369 131.65 198.948 131.438C198.526 131.226 198.215 130.906 198.012 130.48C197.857 130.152 197.788 129.815 197.806 129.47C197.826 129.121 197.923 128.794 198.096 128.488C198.267 128.181 198.501 127.925 198.798 127.721L198.772 127.667C198.311 127.782 197.873 127.74 197.458 127.541C197.041 127.339 196.731 127.023 196.526 126.592C196.332 126.184 196.279 125.764 196.367 125.332C196.454 124.898 196.662 124.491 196.991 124.112C197.322 123.729 197.753 123.411 198.284 123.159C198.815 122.907 199.333 122.774 199.836 122.762C200.342 122.748 200.791 122.845 201.182 123.053C201.571 123.258 201.864 123.563 202.059 123.967C202.262 124.402 202.308 124.844 202.197 125.293C202.086 125.742 201.844 126.106 201.471 126.387L201.497 126.441C201.837 126.343 202.179 126.325 202.523 126.388C202.869 126.447 203.183 126.579 203.466 126.785C203.75 126.986 203.972 127.251 204.13 127.578C204.33 128.005 204.378 128.449 204.276 128.91C204.174 129.37 203.938 129.808 203.568 130.222C203.2 130.632 202.72 130.978 202.127 131.259ZM201.546 130.035C201.81 129.91 202.019 129.753 202.172 129.564C202.323 129.373 202.414 129.166 202.444 128.944C202.475 128.719 202.438 128.494 202.332 128.271C202.223 128.043 202.07 127.868 201.872 127.749C201.672 127.626 201.45 127.562 201.205 127.556C200.958 127.547 200.707 127.603 200.45 127.725C200.196 127.846 199.993 128.005 199.842 128.202C199.689 128.397 199.597 128.611 199.566 128.843C199.535 129.071 199.574 129.299 199.683 129.528C199.789 129.751 199.938 129.922 200.13 130.042C200.32 130.159 200.539 130.219 200.786 130.221C201.031 130.221 201.284 130.159 201.546 130.035ZM199.875 126.512C200.096 126.408 200.271 126.269 200.4 126.098C200.529 125.927 200.605 125.738 200.627 125.533C200.649 125.327 200.611 125.121 200.512 124.913C200.415 124.707 200.281 124.551 200.11 124.443C199.938 124.333 199.747 124.274 199.536 124.267C199.324 124.258 199.105 124.307 198.879 124.414C198.656 124.52 198.48 124.659 198.35 124.83C198.22 124.999 198.143 125.185 198.12 125.388C198.098 125.587 198.136 125.789 198.233 125.994C198.332 126.202 198.467 126.362 198.64 126.475C198.813 126.588 199.007 126.649 199.222 126.657C199.436 126.665 199.654 126.617 199.875 126.512ZM209.268 127.872C208.693 128.145 208.134 128.289 207.591 128.304C207.049 128.316 206.566 128.209 206.141 127.982C205.718 127.753 205.393 127.41 205.168 126.954L206.846 126.158C206.948 126.345 207.091 126.485 207.276 126.576C207.462 126.664 207.672 126.701 207.905 126.688C208.138 126.675 208.376 126.611 208.62 126.495C208.874 126.375 209.077 126.223 209.23 126.041C209.382 125.859 209.476 125.662 209.511 125.45C209.545 125.239 209.514 125.029 209.415 124.821C209.315 124.611 209.168 124.453 208.973 124.347C208.78 124.237 208.552 124.188 208.29 124.199C208.03 124.209 207.752 124.285 207.454 124.426L206.719 124.775L206.138 123.551L206.873 123.202C207.125 123.082 207.326 122.933 207.477 122.755C207.631 122.575 207.725 122.383 207.76 122.177C207.793 121.97 207.761 121.762 207.662 121.554C207.568 121.356 207.439 121.206 207.273 121.102C207.109 120.994 206.922 120.938 206.712 120.934C206.505 120.928 206.29 120.979 206.067 121.084C205.841 121.192 205.654 121.331 205.505 121.502C205.356 121.67 205.26 121.856 205.218 122.058C205.175 122.261 205.198 122.464 205.285 122.668L203.687 123.425C203.479 122.968 203.419 122.506 203.506 122.04C203.593 121.574 203.804 121.142 204.137 120.745C204.472 120.344 204.909 120.016 205.448 119.76C205.992 119.502 206.515 119.375 207.017 119.379C207.519 119.383 207.963 119.5 208.348 119.729C208.735 119.954 209.025 120.275 209.22 120.692C209.432 121.132 209.47 121.566 209.332 121.993C209.198 122.418 208.929 122.775 208.525 123.064L208.554 123.126C209.169 122.925 209.707 122.917 210.165 123.102C210.625 123.283 210.97 123.619 211.2 124.111C211.416 124.559 211.476 125.019 211.38 125.493C211.286 125.965 211.058 126.409 210.696 126.826C210.334 127.243 209.858 127.592 209.268 127.872ZM213.449 125.756L212.879 124.555L214.453 120.625C214.582 120.28 214.684 119.978 214.758 119.716C214.834 119.453 214.873 119.213 214.874 118.996C214.873 118.776 214.823 118.562 214.725 118.354C214.615 118.123 214.468 117.949 214.284 117.832C214.098 117.713 213.893 117.652 213.668 117.648C213.442 117.642 213.214 117.694 212.983 117.804C212.741 117.918 212.554 118.067 212.421 118.249C212.287 118.432 212.215 118.638 212.204 118.866C212.193 119.095 212.247 119.335 212.366 119.586L210.784 120.337C210.539 119.821 210.443 119.318 210.497 118.827C210.55 118.337 210.738 117.887 211.06 117.48C211.383 117.072 211.818 116.738 212.368 116.478C212.932 116.21 213.471 116.077 213.985 116.078C214.499 116.076 214.957 116.196 215.357 116.437C215.758 116.677 216.066 117.025 216.281 117.479C216.422 117.777 216.503 118.099 216.522 118.445C216.544 118.79 216.491 119.21 216.361 119.705C216.23 120.198 216.011 120.82 215.703 121.569L215.087 123.243L215.112 123.297L218.424 121.727L219.07 123.09L213.449 125.756ZM220.324 122.495L216.584 114.61L218.224 113.832L219.63 116.796L219.68 116.772C219.677 116.579 219.704 116.368 219.762 116.139C219.821 115.907 219.935 115.683 220.104 115.468C220.273 115.249 220.524 115.061 220.855 114.904C221.286 114.699 221.738 114.623 222.209 114.676C222.68 114.727 223.131 114.926 223.564 115.274C223.995 115.62 224.371 116.132 224.693 116.809C225.006 117.469 225.163 118.077 225.166 118.632C225.17 119.183 225.045 119.663 224.791 120.069C224.539 120.472 224.188 120.78 223.739 120.993C223.42 121.144 223.125 121.22 222.851 121.22C222.581 121.22 222.337 121.173 222.121 121.081C221.903 120.986 221.718 120.875 221.565 120.746L221.492 120.78L221.941 121.727L220.324 122.495ZM220.527 118.776C220.694 119.128 220.888 119.411 221.11 119.627C221.332 119.842 221.57 119.979 221.824 120.038C222.077 120.094 222.335 120.059 222.6 119.934C222.867 119.807 223.058 119.627 223.173 119.393C223.288 119.157 223.33 118.885 223.301 118.578C223.273 118.267 223.177 117.94 223.014 117.596C222.852 117.255 222.662 116.977 222.444 116.763C222.226 116.549 221.99 116.412 221.736 116.354C221.482 116.295 221.22 116.33 220.951 116.457C220.684 116.584 220.491 116.762 220.373 116.991C220.258 117.218 220.213 117.485 220.239 117.79C220.264 118.096 220.36 118.424 220.527 118.776ZM227.186 119.239L224.381 113.326L225.971 112.571L226.46 113.603L226.522 113.574C226.455 113.156 226.505 112.793 226.67 112.485C226.834 112.174 227.082 111.94 227.413 111.783C227.495 111.744 227.586 111.708 227.686 111.673C227.786 111.638 227.876 111.613 227.956 111.596L228.647 113.052C228.559 113.065 228.442 113.095 228.298 113.142C228.153 113.188 228.024 113.238 227.912 113.292C227.67 113.406 227.48 113.561 227.34 113.757C227.201 113.948 227.12 114.163 227.098 114.4C227.077 114.636 227.125 114.874 227.239 115.116L228.826 118.461L227.186 119.239ZM234.6 115.855C234.007 116.136 233.434 116.29 232.88 116.316C232.328 116.339 231.842 116.245 231.42 116.033C230.999 115.821 230.687 115.502 230.485 115.076C230.329 114.747 230.261 114.41 230.279 114.065C230.299 113.716 230.395 113.389 230.568 113.083C230.74 112.776 230.974 112.52 231.27 112.316L231.245 112.263C230.784 112.378 230.345 112.335 229.93 112.136C229.514 111.934 229.203 111.618 228.999 111.187C228.805 110.779 228.752 110.359 228.84 109.927C228.926 109.493 229.134 109.086 229.464 108.707C229.794 108.324 230.225 108.006 230.757 107.754C231.288 107.502 231.805 107.37 232.309 107.357C232.815 107.343 233.263 107.44 233.654 107.648C234.044 107.853 234.336 108.158 234.531 108.562C234.735 108.997 234.781 109.439 234.67 109.888C234.559 110.337 234.317 110.701 233.944 110.982L233.969 111.036C234.309 110.938 234.652 110.92 234.996 110.983C235.342 111.042 235.656 111.175 235.939 111.38C236.223 111.581 236.444 111.846 236.603 112.173C236.802 112.601 236.851 113.044 236.749 113.505C236.646 113.965 236.411 114.403 236.041 114.817C235.673 115.227 235.192 115.573 234.6 115.855ZM234.019 114.63C234.283 114.505 234.492 114.348 234.644 114.159C234.796 113.968 234.886 113.761 234.916 113.539C234.948 113.314 234.91 113.089 234.804 112.866C234.696 112.638 234.543 112.464 234.344 112.344C234.145 112.222 233.923 112.157 233.677 112.151C233.431 112.142 233.18 112.198 232.923 112.32C232.669 112.441 232.466 112.6 232.314 112.797C232.162 112.992 232.07 113.206 232.038 113.438C232.008 113.666 232.047 113.894 232.156 114.123C232.261 114.346 232.41 114.517 232.602 114.637C232.793 114.754 233.012 114.814 233.258 114.816C233.503 114.816 233.757 114.754 234.019 114.63ZM232.348 111.107C232.568 111.003 232.743 110.865 232.873 110.693C233.002 110.522 233.078 110.333 233.1 110.128C233.122 109.922 233.084 109.716 232.985 109.508C232.887 109.303 232.753 109.146 232.583 109.038C232.411 108.928 232.22 108.869 232.009 108.863C231.797 108.853 231.578 108.902 231.352 109.009C231.129 109.115 230.952 109.254 230.823 109.425C230.693 109.594 230.616 109.78 230.592 109.983C230.57 110.182 230.608 110.384 230.706 110.589C230.804 110.797 230.94 110.957 231.113 111.07C231.286 111.183 231.48 111.244 231.695 111.252C231.909 111.26 232.127 111.212 232.348 111.107ZM238.821 113.72L235.08 105.835L236.721 105.057L238.127 108.021L238.177 107.998C238.173 107.804 238.201 107.593 238.259 107.364C238.318 107.132 238.432 106.908 238.601 106.693C238.77 106.474 239.021 106.286 239.352 106.129C239.783 105.924 240.234 105.849 240.706 105.902C241.176 105.952 241.628 106.151 242.06 106.5C242.492 106.845 242.868 107.357 243.189 108.035C243.502 108.694 243.66 109.302 243.663 109.857C243.666 110.409 243.541 110.888 243.288 111.294C243.035 111.697 242.685 112.005 242.236 112.218C241.917 112.369 241.622 112.445 241.348 112.445C241.078 112.445 240.834 112.399 240.617 112.306C240.399 112.212 240.214 112.1 240.062 111.971L239.989 112.006L240.438 112.953L238.821 113.72ZM239.024 110.001C239.191 110.353 239.385 110.636 239.607 110.852C239.828 111.068 240.066 111.205 240.321 111.263C240.574 111.319 240.832 111.285 241.097 111.159C241.364 111.033 241.555 110.852 241.67 110.618C241.784 110.382 241.827 110.11 241.798 109.803C241.77 109.493 241.674 109.165 241.511 108.821C241.349 108.48 241.159 108.202 240.941 107.988C240.723 107.774 240.487 107.637 240.233 107.579C239.979 107.52 239.717 107.555 239.447 107.683C239.18 107.809 238.988 107.987 238.87 108.216C238.755 108.443 238.71 108.71 238.735 109.016C238.761 109.321 238.857 109.65 239.024 110.001ZM248.66 109.184C248.067 109.466 247.494 109.619 246.941 109.646C246.389 109.669 245.902 109.574 245.481 109.362C245.059 109.15 244.748 108.831 244.546 108.405C244.39 108.077 244.321 107.74 244.34 107.395C244.36 107.045 244.456 106.718 244.629 106.413C244.8 106.105 245.034 105.85 245.331 105.646L245.305 105.592C244.844 105.707 244.406 105.665 243.991 105.466C243.574 105.264 243.264 104.948 243.059 104.516C242.866 104.108 242.813 103.689 242.9 103.257C242.987 102.823 243.195 102.416 243.524 102.037C243.855 101.653 244.286 101.336 244.817 101.084C245.349 100.832 245.866 100.699 246.369 100.687C246.875 100.673 247.324 100.77 247.715 100.978C248.105 101.183 248.397 101.487 248.592 101.892C248.795 102.327 248.841 102.769 248.73 103.218C248.619 103.666 248.377 104.031 248.004 104.312L248.03 104.366C248.37 104.267 248.712 104.25 249.056 104.313C249.402 104.372 249.716 104.504 249.999 104.71C250.284 104.911 250.505 105.176 250.663 105.503C250.863 105.93 250.912 106.374 250.809 106.835C250.707 107.295 250.471 107.732 250.102 108.147C249.734 108.557 249.253 108.903 248.66 109.184ZM248.079 107.96C248.344 107.834 248.552 107.677 248.705 107.489C248.856 107.297 248.947 107.091 248.977 106.869C249.008 106.644 248.971 106.419 248.865 106.196C248.757 105.967 248.603 105.793 248.405 105.674C248.205 105.551 247.983 105.487 247.738 105.481C247.492 105.472 247.24 105.528 246.983 105.65C246.729 105.77 246.527 105.929 246.375 106.127C246.222 106.322 246.13 106.536 246.099 106.768C246.069 106.996 246.108 107.224 246.216 107.452C246.322 107.676 246.471 107.847 246.663 107.967C246.854 108.084 247.072 108.144 247.319 108.146C247.564 108.146 247.817 108.084 248.079 107.96ZM246.408 104.437C246.629 104.332 246.804 104.194 246.933 104.023C247.063 103.851 247.138 103.663 247.16 103.458C247.182 103.252 247.144 103.046 247.045 102.838C246.948 102.632 246.814 102.476 246.643 102.368C246.472 102.258 246.28 102.199 246.069 102.192C245.857 102.183 245.639 102.232 245.413 102.339C245.189 102.445 245.013 102.583 244.884 102.755C244.753 102.924 244.676 103.109 244.653 103.312C244.631 103.511 244.669 103.714 244.766 103.919C244.865 104.127 245.001 104.287 245.174 104.4C245.347 104.513 245.541 104.574 245.755 104.582C245.97 104.59 246.187 104.542 246.408 104.437ZM253.635 106.815C253.381 106.935 253.12 106.949 252.852 106.856C252.586 106.759 252.393 106.583 252.272 106.329C252.153 106.078 252.14 105.819 252.235 105.555C252.332 105.288 252.507 105.095 252.762 104.975C253.008 104.858 253.266 104.845 253.536 104.937C253.806 105.029 254.001 105.201 254.12 105.453C254.201 105.622 254.231 105.798 254.21 105.98C254.191 106.159 254.133 106.324 254.034 106.474C253.935 106.622 253.801 106.736 253.635 106.815ZM256.864 105.283C256.61 105.404 256.349 105.417 256.082 105.324C255.815 105.227 255.622 105.051 255.502 104.797C255.382 104.546 255.37 104.288 255.464 104.023C255.561 103.756 255.737 103.563 255.991 103.443C256.237 103.326 256.495 103.313 256.766 103.405C257.036 103.497 257.23 103.669 257.35 103.921C257.43 104.09 257.46 104.266 257.44 104.449C257.421 104.627 257.362 104.792 257.264 104.942C257.164 105.09 257.031 105.204 256.864 105.283ZM260.093 103.751C259.839 103.872 259.578 103.885 259.311 103.792C259.045 103.695 258.851 103.519 258.731 103.265C258.611 103.014 258.599 102.756 258.693 102.491C258.79 102.225 258.966 102.031 259.22 101.911C259.467 101.794 259.725 101.781 259.995 101.873C260.265 101.965 260.46 102.137 260.579 102.389C260.659 102.558 260.689 102.734 260.669 102.917C260.65 103.095 260.591 103.26 260.493 103.41C260.393 103.558 260.26 103.672 260.093 103.751Z" fill="white"/>
<path fill-rule="evenodd" clip-rule="evenodd" d="M80.8579 260.6C75.8681 262.967 73.742 268.931 76.1092 273.921L78.6808 279.342L96.7506 270.77L96.5363 270.318C94.7609 266.576 96.3555 262.103 100.098 260.327C103.84 258.552 108.313 260.147 110.089 263.889L110.303 264.341L128.373 255.769L125.801 250.348C123.434 245.358 117.47 243.232 112.48 245.599L80.8579 260.6ZM129.23 257.575L111.16 266.148L115.875 276.086L133.945 267.514L129.23 257.575ZM134.802 269.321L116.732 277.893L117.375 279.248C119.15 282.991 117.556 287.464 113.813 289.239C110.071 291.014 105.598 289.42 103.823 285.677L103.18 284.322L85.11 292.894L87.6817 298.315C90.0488 303.305 96.0128 305.431 101.003 303.064L132.625 288.063C137.615 285.696 139.741 279.732 137.374 274.742L134.802 269.321ZM84.2528 291.087L102.323 282.515L97.6078 272.577L79.538 281.149L84.2528 291.087ZM115.568 280.106L108.282 264.746C106.98 262.002 103.7 260.832 100.955 262.134C98.2107 263.436 97.0413 266.717 98.3433 269.461L105.63 284.82C106.932 287.565 110.212 288.734 112.956 287.432C115.701 286.13 116.87 282.85 115.568 280.106Z" fill="#D9D9D9"/>
<circle cx="251.062" cy="206.42" r="67" transform="rotate(-25.3795 251.062 206.42)" fill="#5D51BB"/>
<path d="M409.03 138.48C409.677 136.16 409.522 133.603 408.406 131.252C407.29 128.9 405.408 127.163 403.198 126.194C403.135 126.168 403.065 126.167 403.002 126.192C402.939 126.216 402.888 126.264 402.86 126.326L402.108 127.972C402.049 128.104 402.108 128.259 402.24 128.318C403.965 129.062 405.436 130.414 406.306 132.248C407.176 134.082 407.292 136.076 406.78 137.882C406.743 138.021 406.825 138.165 406.965 138.203L408.716 138.662C408.851 138.698 408.991 138.617 409.03 138.48ZM414.746 139.976C415.671 136.358 415.386 132.405 413.657 128.761C411.928 125.116 409.047 122.395 405.659 120.82C405.596 120.791 405.525 120.789 405.461 120.813C405.396 120.836 405.344 120.885 405.315 120.947L404.563 122.594C404.503 122.723 404.562 122.877 404.689 122.935C407.598 124.29 410.073 126.63 411.557 129.757C413.04 132.884 413.287 136.282 412.495 139.388C412.46 139.526 412.541 139.667 412.679 139.702L414.43 140.161C414.568 140.196 414.711 140.114 414.746 139.976ZM420.42 141.465C421.641 136.536 421.229 131.163 418.88 126.211C416.546 121.291 412.683 117.592 408.132 115.411C408.101 115.396 408.067 115.388 408.032 115.386C407.998 115.384 407.964 115.389 407.931 115.401C407.899 115.412 407.869 115.43 407.844 115.454C407.818 115.477 407.798 115.505 407.784 115.537L407.032 117.184C406.975 117.311 407.029 117.464 407.154 117.523C411.232 119.484 414.689 122.8 416.78 127.208C418.886 131.648 419.257 136.46 418.167 140.882C418.133 141.02 418.217 141.16 418.355 141.195L420.106 141.654C420.245 141.692 420.387 141.606 420.42 141.465Z" fill="#D9D9D9"/>
</g>
<defs>
<filter id="filter0_f_22_225" x="161.603" y="162.249" width="373.023" height="373.023" filterUnits="userSpaceOnUse" color-interpolation-filters="sRGB">
<feFlood flood-opacity="0" result="BackgroundImageFix"/>
<feBlend mode="normal" in="SourceGraphic" in2="BackgroundImageFix" result="shape"/>
<feGaussianBlur stdDeviation="43" result="effect1_foregroundBlur_22_225"/>
</filter>
<filter id="filter1_d_22_225" x="0.296654" y="8.29666" width="556.199" height="506.771" filterUnits="userSpaceOnUse" color-interpolation-filters="sRGB">
<feFlood flood-opacity="0" result="BackgroundImageFix"/>
<feColorMatrix in="SourceAlpha" type="matrix" values="0 0 0 0 0 0 0 0 0 0 0 0 0 0 0 0 0 0 127 0" result="hardAlpha"/>
<feOffset dx="28" dy="74"/>
<feGaussianBlur stdDeviation="18.5"/>
<feComposite in2="hardAlpha" operator="out"/>
<feColorMatrix type="matrix" values="0 0 0 0 0 0 0 0 0 0 0 0 0 0 0 0 0 0 0.25 0"/>
<feBlend mode="normal" in2="BackgroundImageFix" result="effect1_dropShadow_22_225"/>
<feBlend mode="normal" in="SourceGraphic" in2="effect1_dropShadow_22_225" result="shape"/>
</filter>
<filter id="filter2_f_22_225" x="63.8726" y="19.6587" width="373.047" height="373.047" filterUnits="userSpaceOnUse" color-interpolation-filters="sRGB">
<feFlood flood-opacity="0" result="BackgroundImageFix"/>
<feBlend mode="normal" in="SourceGraphic" in2="BackgroundImageFix" result="shape"/>
<feGaussianBlur stdDeviation="43" result="effect1_foregroundBlur_22_225"/>
</filter>
</defs>
</svg>
