<svg width="20" height="27" viewBox="0 0 20 27" fill="none" xmlns="http://www.w3.org/2000/svg">
<path d="M7.02989 23.4805C7.67657 21.16 7.52157 18.6034 6.40595 16.2517C5.29032 13.9 3.40834 12.1628 1.1977 11.1941C1.13523 11.168 1.06517 11.1672 1.00218 11.1917C0.939204 11.2162 0.888201 11.2643 0.85987 11.3257L0.107924 12.9724C0.0489796 13.1043 0.108078 13.259 0.239855 13.3183C1.96505 14.0622 3.43554 15.4142 4.30556 17.2481C5.17558 19.0821 5.2925 21.0762 4.7802 22.8816C4.74278 23.0211 4.82522 23.1648 4.96464 23.2025L6.71565 23.6618C6.85077 23.6981 6.99108 23.6172 7.02989 23.4805ZM12.7459 24.9756C13.6709 21.3584 13.3858 17.4052 11.6569 13.7607C9.92797 10.1162 7.04657 7.39463 3.65858 5.81996C3.59607 5.79141 3.52487 5.78875 3.46052 5.81257C3.39616 5.83638 3.34388 5.88474 3.31506 5.94709L2.56311 7.59378C2.50278 7.72273 2.56188 7.87744 2.68935 7.93521C5.59759 9.28957 8.07319 11.6303 9.55652 14.7571C11.0399 17.8839 11.2867 21.2819 10.4946 24.3882C10.4601 24.5264 10.5411 24.6671 10.6791 24.7019L12.4302 25.1612C12.5682 25.196 12.7114 25.1138 12.7459 24.9756ZM18.4201 26.4654C19.6411 21.5361 19.2293 16.1631 16.8801 11.2111C14.5462 6.29135 10.6826 2.59171 6.13169 0.411341C6.10065 0.396256 6.06692 0.38754 6.03249 0.385705C5.99806 0.38387 5.96362 0.388954 5.93121 0.400657C5.8988 0.41236 5.86906 0.430446 5.84376 0.45385C5.81845 0.477254 5.79809 0.505502 5.78387 0.536932L5.03192 2.18362C4.97451 2.31118 5.0293 2.46435 5.15386 2.52351C9.23222 4.48373 12.6886 7.79964 14.7797 12.2076C16.8861 16.6477 17.2569 21.4596 16.1673 25.8823C16.1328 26.0205 16.2167 26.1598 16.3548 26.1946L18.1058 26.6539C18.2452 26.6917 18.387 26.6065 18.4201 26.4654Z" fill="#D9D9D9"/>
</svg>
